<svg xmlns="http://www.w3.org/2000/svg" width="162.773681640625" height="242.27325439453125" viewBox="-0.04323577880859375 -20.25812530517578 162.773681640625 242.27325439453125"><title>Neo4j Graph Visualization</title><desc>Created using Neo4j (http://www.neo4j.com/)</desc><g class="layer relationships"><g class="relationship" transform="translate(133.73043160260977 8.7418746682044) rotate(522.1374964752299)"><path class="outline" fill="#A5ABB6" stroke="none" d="M 21.40063509461097,12.933012701892217 L 21.90063509461097,12.06698729810778 A 60.05542913523725 60.05542913523725 0 0 0 40.55996749229155,19.02706623243227 L 40.37066933334678,20.008985886487594 A 61.05542913523725 61.05542913523725 0 0 1 21.40063509461097,12.933012701892217 Z M 59.774341782824784,20.60666179807844 L 59.64583573132826,19.614953073336757 A 60.05542913523725 60.05542913523725 0 0 0 78.69815978604649,13.816476341197202 L 77.36090466144145,11.13100641365797 L 85.18713213773887,11.143792705041987 L 80.4811666188532,17.39710291124951 L 79.14391149424816,14.711632983710278 A 61.05542913523725 61.05542913523725 0 0 1 59.774341782824784,20.60666179807844"/><text text-anchor="middle" pointer-events="none" font-size="8px" fill="#000000" x="50.0639930917691" y="23.58418282704872" transform="rotate(180 50.0639930917691 20.58418282704872)" font-family="sans-serif">trek</text></g><g class="relationship" transform="translate(31.349567579144313 41.73601668303981) rotate(451.2812592953683)"><path class="outline" fill="#A5ABB6" stroke="none" d="M 25 0.5 L 40.337585225489725 0.5 L 40.337585225489725 -0.5 L 25 -0.5 Z M 59.673522725489725 0.5 L 75.01110795097945 0.5 L 75.01110795097945 3.5 L 82.01110795097945 0 L 75.01110795097945 -3.5 L 75.01110795097945 -0.5 L 59.673522725489725 -0.5 Z"/><text text-anchor="middle" pointer-events="none" font-size="8px" fill="#000000" x="50.005553975489725" y="3" transform="rotate(180 50.005553975489725 0)" font-family="sans-serif">trek</text></g><g class="relationship" transform="translate(28.956763939402855 148.7203693503239) rotate(384.3505366667755)"><path class="outline" fill="#A5ABB6" stroke="none" d="M 25 0.5 L 40.54632354761584 0.5 L 40.54632354761584 -0.5 L 25 -0.5 Z M 59.88226104761584 0.5 L 75.42858459523168 0.5 L 75.42858459523168 3.5 L 82.42858459523168 0 L 75.42858459523168 -3.5 L 75.42858459523168 -0.5 L 59.88226104761584 -0.5 Z"/><text text-anchor="middle" pointer-events="none" font-size="8px" fill="#000000" x="50.21429229761584" y="3" font-family="sans-serif">trek</text></g><g class="relationship" transform="translate(133.73043160260977 8.7418746682044) rotate(522.1374964752299)"><path class="outline" fill="#A5ABB6" stroke="none" d="M 25 0.5 L 39.27716472528291 0.5 L 39.27716472528291 -0.5 L 25 -0.5 Z M 61.28888347528291 0.5 L 75.56604820056582 0.5 L 75.56604820056582 3.5 L 82.56604820056582 0 L 75.56604820056582 -3.5 L 75.56604820056582 -0.5 L 61.28888347528291 -0.5 Z"/><text text-anchor="middle" pointer-events="none" font-size="8px" fill="#000000" x="50.28302410028291" y="3" transform="rotate(180 50.28302410028291 0)" font-family="sans-serif">road</text></g><g class="relationship" transform="translate(133.73043160260977 8.7418746682044) rotate(522.1374964752299)"><path class="outline" fill="#A5ABB6" stroke="none" d="M 21.40063509461097,-12.933012701892217 L 21.90063509461097,-12.06698729810778 A 60.05542913523725 60.05542913523725 0 0 1 23.520303623972488,-12.969060734363154 L 23.047273184471578,-13.850106819029314 A 61.05542913523725 61.05542913523725 0 0 0 21.40063509461097,-12.933012701892217 Z M 77.44395153247788,-15.52564449901287 L 77.02604272024544,-14.61715552018127 A 60.05542913523725 60.05542913523725 0 0 1 78.69815978604649,-13.816476341197202 L 77.36090466144145,-11.13100641365797 L 85.18713213773887,-11.143792705041987 L 80.4811666188532,-17.39710291124951 L 79.14391149424816,-14.711632983710278 A 61.05542913523725 61.05542913523725 0 0 0 77.44395153247788,-15.52564449901287"/><text text-anchor="middle" pointer-events="none" font-size="8px" fill="#000000" x="50.063993091769085" y="-17.58418282704872" transform="rotate(180 50.063993091769085 -20.58418282704872)" font-family="sans-serif">PublicTrans…</text></g></g><g class="layer nodes"><g class="node" transform="translate(133.73043160260977,8.7418746682044)"><circle class="outline" cx="0" cy="0" r="25" fill="#F16667" stroke="#eb2728" stroke-width="2px"/><text text-anchor="middle" pointer-events="none" font-family="sans-serif" dy="1.5625" font-size="25" fill="#FFFFFF"/><text text-anchor="middle" pointer-events="none" x="0" y="5" font-size="10px" fill="#FFFFFF" font-family="sans-serif"> Darjeeling</text></g><g class="node" transform="translate(126.82849666876506,193.01511757951175)"><circle class="outline" cx="0" cy="0" r="25" fill="#8DCC93" stroke="#5db665" stroke-width="2px"/><text text-anchor="middle" pointer-events="none" font-family="sans-serif" dy="1.5625" font-size="25" fill="#2A2C34"/><text text-anchor="middle" pointer-events="none" x="0" y="5" font-size="10px" fill="#2A2C34" font-family="sans-serif"> Sandak…</text></g><g class="node" transform="translate(31.349567579144313,41.73601668303981)"><circle class="outline" cx="0" cy="0" r="25" fill="#F16667" stroke="#eb2728" stroke-width="2px"/><text text-anchor="middle" pointer-events="none" font-family="sans-serif" dy="1.5625" font-size="25" fill="#FFFFFF"/><text text-anchor="middle" pointer-events="none" x="0" y="5" font-size="10px" fill="#FFFFFF" font-family="sans-serif"> Rimbik</text></g><g class="node" transform="translate(28.956763939402855,148.7203693503239)"><circle class="outline" cx="0" cy="0" r="25" fill="#D9C8AE" stroke="#c0a378" stroke-width="2px"/><text text-anchor="middle" pointer-events="none" font-family="sans-serif" dy="1.5625" font-size="25" fill="#2A2C34"/><text text-anchor="middle" pointer-events="none" x="0" y="5" font-size="10px" fill="#2A2C34" font-family="sans-serif"> BhikeBh…</text></g></g></svg>