<svg xmlns="http://www.w3.org/2000/svg" width="758.3260498046875" height="306.8310241699219" viewBox="-305.40509033203125 -22.892595291137695 758.3260498046875 306.8310241699219"><title>Neo4j Graph Visualization</title><desc>Created using Neo4j (http://www.neo4j.com/)</desc><g class="layer relationships"><g class="relationship" transform="translate(-276.4050828654978 13.101665757968775) rotate(361.1024017532038)"><path class="outline" fill="#A5ABB6" stroke="none" d="M 24.018736134675446,-6.953439040707552 L 24.277555179777966,-5.987513214418485 A 179.7084890500446 179.7084890500446 0 0 1 57.67130423507524,-11.63149439566945 L 57.59830695739072,-12.628826535656259 A 180.7084890500446 180.7084890500446 0 0 0 24.018736134675446,-6.953439040707552 Z M 79.65579421846964,-12.893293887531598 L 79.60673033911038,-11.894498244898813 A 179.7084890500446 179.7084890500446 0 0 1 113.12620176880355,-7.052800751615434 L 112.4194460565931,-4.137239679839044 L 120.04697022165021,-5.8896309350871086 L 114.06854271841749,-10.940215513983954 L 113.36178700620704,-8.024654442207565 A 180.7084890500446 180.7084890500446 0 0 0 79.65579421846964,-12.893293887531598"/><text text-anchor="middle" pointer-events="none" font-size="8px" fill="#000000" x="68.62900590934197" y="-9.59797967697935" font-family="sans-serif">road</text></g><g class="relationship" transform="translate(-132.0884873857581 15.87873772303061) rotate(360.5077803549551)"><path class="outline" fill="#A5ABB6" stroke="none" d="M 21.40063509461097,-12.933012701892217 L 21.90063509461097,-12.06698729810778 A 137.05810847398547 137.05810847398547 0 0 1 64.89531859223973,-28.029718420424686 L 64.70901534448836,-29.012210710408326 A 138.05810847398547 138.05810847398547 0 0 0 21.40063509461097,-12.933012701892217 Z M 111.1134192007467,-29.871090649632023 L 110.96360018542214,-28.882377211548388 A 137.05810847398547 137.05810847398547 0 0 1 154.51952942198923,-14.52157562236768 L 153.11669727720118,-11.869772090137339 L 160.94087635465806,-11.690267873233912 L 156.38997228170666,-18.057313665341468 L 154.9871401369186,-15.405510133111127 A 138.05810847398547 138.05810847398547 0 0 0 111.1134192007467,-29.871090649632023"/><text text-anchor="middle" pointer-events="none" font-size="8px" fill="#000000" x="87.8841191111605" y="-27.905736602379122" font-family="sans-serif">twowheeler</text></g><g class="relationship" transform="translate(50.943563574953586 17.500890592406776) rotate(391.144007850838)"><path class="outline" fill="#A5ABB6" stroke="none" d="M 21.40063509461097,12.933012701892217 L 21.90063509461097,12.06698729810778 A 108.69019521707611 108.69019521707611 0 0 0 50.9920183256395,23.65421340857317 L 50.75967248867534,24.626846644713822 A 109.69019521707611 109.69019521707611 0 0 1 21.40063509461097,12.933012701892217 Z M 97.07496556824168,25.632908711376913 L 96.8850740941325,24.65110362478353 A 108.69019521707611 108.69019521707611 0 0 0 126.45217561266442,14.338058728999979 L 125.06640821729147,11.677297799130248 L 132.89157901492263,11.548061628108023 L 128.2998654731617,17.885739968826286 L 126.91409807778875,15.224979038956555 A 109.69019521707611 109.69019521707611 0 0 1 97.07496556824168,25.632908711376913"/><text text-anchor="middle" pointer-events="none" font-size="8px" fill="#000000" x="73.87445966008767" y="30.10296092318201" font-family="sans-serif">twowheeler</text></g><g class="relationship" transform="translate(183.65870573998157 97.69887752696744) rotate(371.87132503434293)"><path class="outline" fill="#A5ABB6" stroke="none" d="M 25 0.5 L 109.58868050393188 0.5 L 109.58868050393188 -0.5 L 25 -0.5 Z M 128.92461800393187 0.5 L 213.51329850786377 0.5 L 213.51329850786377 3.5 L 220.51329850786377 0 L 213.51329850786377 -3.5 L 213.51329850786377 -0.5 L 128.92461800393187 -0.5 Z"/><text text-anchor="middle" pointer-events="none" font-size="8px" fill="#000000" x="119.25664925393188" y="3" font-family="sans-serif">trek</text></g><g class="relationship" transform="translate(-276.4050828654978 13.101665757968775) rotate(361.1024017532038)"><path class="outline" fill="#A5ABB6" stroke="none" d="M 24.018736134675446,6.953439040707552 L 24.277555179777966,5.987513214418485 A 179.7084890500446 179.7084890500446 0 0 0 59.00227269316143,11.723945584140466 L 58.93668167917164,12.721792174996892 A 180.7084890500446 180.7084890500446 0 0 1 24.018736134675446,6.953439040707552 Z M 78.31557526614725,12.954143421925409 L 78.2739278560384,11.955011051700524 A 179.7084890500446 179.7084890500446 0 0 0 113.12620176880355,7.052800751615434 L 112.4194460565931,4.137239679839044 L 120.04697022165021,5.8896309350871086 L 114.06854271841749,10.940215513983954 L 113.36178700620704,8.024654442207565 A 180.7084890500446 180.7084890500446 0 0 1 78.31557526614725,12.954143421925409"/><text text-anchor="middle" pointer-events="none" font-size="8px" fill="#000000" x="68.629005909342" y="15.59797967697935" font-family="sans-serif">trek</text></g><g class="relationship" transform="translate(-132.0884873857581 15.87873772303061) rotate(360.5077803549551)"><path class="outline" fill="#A5ABB6" stroke="none" d="M 25 0.5 L 77.01376018662212 0.5 L 77.01376018662212 -0.5 L 25 -0.5 Z M 99.02547893662212 0.5 L 151.03923912324424 0.5 L 151.03923912324424 3.5 L 158.03923912324424 0 L 151.03923912324424 -3.5 L 151.03923912324424 -0.5 L 99.02547893662212 -0.5 Z"/><text text-anchor="middle" pointer-events="none" font-size="8px" fill="#000000" x="88.01961956162212" y="3" font-family="sans-serif">road</text></g><g class="relationship" transform="translate(-132.0884873857581 15.87873772303061) rotate(360.5077803549551)"><path class="outline" fill="#A5ABB6" stroke="none" d="M 21.40063509461097,12.933012701892217 L 21.90063509461097,12.06698729810778 A 137.05810847398547 137.05810847398547 0 0 0 78.27638288757858,29.889395686835613 L 78.18771023202144,30.88545650835026 A 138.05810847398547 138.05810847398547 0 0 1 21.40063509461097,12.933012701892217 Z M 97.57463736533126,31.24428113304687 L 97.52288417160216,30.24562122750403 A 137.05810847398547 137.05810847398547 0 0 0 154.51952942198923,14.52157562236768 L 153.11669727720118,11.869772090137339 L 160.94087635465806,11.690267873233912 L 156.38997228170666,18.057313665341468 L 154.9871401369186,15.405510133111127 A 138.05810847398547 138.05810847398547 0 0 1 97.57463736533126,31.24428113304687"/><text text-anchor="middle" pointer-events="none" font-size="8px" fill="#000000" x="87.88411911116053" y="33.90573660237912" font-family="sans-serif">trek</text></g><g class="relationship" transform="translate(50.943563574953586 17.500890592406776) rotate(391.144007850838)"><path class="outline" fill="#A5ABB6" stroke="none" d="M 25 0.5 L 63.026434006918535 0.5 L 63.026434006918535 -0.5 L 25 -0.5 Z M 85.03815275691854 0.5 L 123.06458676383707 0.5 L 123.06458676383707 3.5 L 130.06458676383707 0 L 123.06458676383707 -3.5 L 123.06458676383707 -0.5 L 85.03815275691854 -0.5 Z"/><text text-anchor="middle" pointer-events="none" font-size="8px" fill="#000000" x="74.03229338191854" y="3" font-family="sans-serif">road</text></g><g class="relationship" transform="translate(50.943563574953586 17.500890592406776) rotate(391.144007850838)"><path class="outline" fill="#A5ABB6" stroke="none" d="M 21.40063509461097,-12.933012701892217 L 21.90063509461097,-12.06698729810778 A 108.69019521707611 108.69019521707611 0 0 1 64.28570345142448,-25.968680647757125 L 64.17566565797091,-26.962608051550717 A 109.69019521707611 109.69019521707611 0 0 0 21.40063509461097,-12.933012701892217 Z M 83.57019991742226,-27.38389665670995 L 83.50342578870658,-26.3861285394932 A 108.69019521707611 108.69019521707611 0 0 1 126.45217561266442,-14.338058728999979 L 125.06640821729147,-11.677297799130248 L 132.89157901492263,-11.548061628108023 L 128.2998654731617,-17.885739968826286 L 126.91409807778875,-15.224979038956555 A 109.69019521707611 109.69019521707611 0 0 0 83.57019991742226,-27.38389665670995"/><text text-anchor="middle" pointer-events="none" font-size="8px" fill="#000000" x="73.87445966008768" y="-24.102960923182025" font-family="sans-serif">trek</text></g><g class="relationship" transform="translate(-276.4050828654978 13.101665757968775) rotate(425.7492035474476)"><path class="outline" fill="#A5ABB6" stroke="none" d="M 21.40063509461097,12.933012701892217 L 21.90063509461097,12.06698729810778 A 88.90587837728226 88.90587837728226 0 0 0 54.57900038401935,23.194962839886358 L 54.446561740881876,24.18615404535778 A 89.90587837728226 89.90587837728226 0 0 1 21.40063509461097,12.933012701892217 Z M 73.84684657537993,24.66530609711141 L 73.76350083172696,23.668785406400517 A 88.90587837728226 88.90587837728226 0 0 0 106.95136951626345,14.167587070169944 L 105.58145576115504,11.49862916425146 L 113.40725692259132,11.41594795923674 L 108.77792118974133,17.72619761139459 L 107.40800743463292,15.057239705476107 A 89.90587837728226 89.90587837728226 0 0 1 73.84684657537993,24.66530609711141"/><text text-anchor="middle" pointer-events="none" font-size="8px" fill="#000000" x="64.1460834919851" y="27.45086008992436" font-family="sans-serif">trek</text></g><g class="relationship" transform="translate(-220.68993745952542 136.78011123854276) rotate(354.4793780841062)"><path class="outline" fill="#A5ABB6" stroke="none" d="M 25 0.5 L 189.94848066123123 0.5 L 189.94848066123123 -0.5 L 25 -0.5 Z M 209.28441816123123 0.5 L 374.23289882246246 0.5 L 374.23289882246246 3.5 L 381.23289882246246 0 L 374.23289882246246 -3.5 L 374.23289882246246 -0.5 L 209.28441816123123 -0.5 Z"/><text text-anchor="middle" pointer-events="none" font-size="8px" fill="#000000" x="199.61644941123123" y="3" font-family="sans-serif">trek</text></g><g class="relationship" transform="translate(-276.4050828654978 13.101665757968775) rotate(425.7492035474476)"><path class="outline" fill="#A5ABB6" stroke="none" d="M 25 0.5 L 53.31842702762269 0.5 L 53.31842702762269 -0.5 L 25 -0.5 Z M 75.33014577762269 0.5 L 103.64857280524538 0.5 L 103.64857280524538 3.5 L 110.64857280524538 0 L 103.64857280524538 -3.5 L 103.64857280524538 -0.5 L 75.33014577762269 -0.5 Z"/><text text-anchor="middle" pointer-events="none" font-size="8px" fill="#000000" x="64.32428640262269" y="3" font-family="sans-serif">road</text></g><g class="relationship" transform="translate(-276.4050828654978 13.101665757968775) rotate(425.7492035474476)"><path class="outline" fill="#A5ABB6" stroke="none" d="M 21.40063509461097,-12.933012701892217 L 21.90063509461097,-12.06698729810778 A 88.90587837728226 88.90587837728226 0 0 1 34.21053561345221,-17.964217635997556 L 33.84899553020375,-18.8965742030923 A 89.90587837728226 89.90587837728226 0 0 0 21.40063509461097,-12.933012701892217 Z M 94.6804259163394,-20.399000839055617 L 94.36535361912857,-19.44993316626811 A 88.90587837728226 88.90587837728226 0 0 1 106.95136951626345,-14.167587070169944 L 105.58145576115504,-11.49862916425146 L 113.40725692259132,-11.41594795923674 L 108.77792118974133,-17.72619761139459 L 107.40800743463292,-15.057239705476107 A 89.90587837728226 89.90587837728226 0 0 0 94.6804259163394,-20.399000839055617"/><text text-anchor="middle" pointer-events="none" font-size="8px" fill="#000000" x="64.14608349198507" y="-21.45086008992436" font-family="sans-serif">PublicTransport</text></g><g class="relationship" transform="translate(-220.68993745952542 136.78011123854276) rotate(370.15279959480506)"><path class="outline" fill="#A5ABB6" stroke="none" d="M 24.018736134675446,-6.953439040707552 L 24.277555179777966,-5.987513214418485 A 400.12581314078056 400.12581314078056 0 0 1 101.90650136230352,-18.780313653449696 L 101.84169365971644,-19.778211424609367 A 401.12581314078056 401.12581314078056 0 0 0 24.018736134675446,-6.953439040707552 Z M 148.33736206070122,-20.09730818293474 L 148.28625683303602,-19.098614908848447 A 400.12581314078056 400.12581314078056 0 0 1 226.08347478232977,-7.3724941593247895 L 225.3468634303647,-4.464332589508528 L 232.9919536705619,-6.138427933042321 L 227.06562325161656,-11.250042919079805 L 226.32901189965148,-8.341881349263543 A 401.12581314078056 401.12581314078056 0 0 0 148.33736206070122,-20.09730818293474"/><text text-anchor="middle" pointer-events="none" font-size="8px" fill="#000000" x="125.0883318187945" y="-17.112035297157547" font-family="sans-serif">twowheeler</text></g><g class="relationship" transform="translate(32.50882444980605 182.12245246250387) rotate(360.66954195365224)"><path class="outline" fill="#A5ABB6" stroke="none" d="M 24.018736134675446,-6.953439040707552 L 24.277555179777966,-5.987513214418485 A 250.67760090148286 250.67760090148286 0 0 1 63.591179795548044,-13.221977769531662 L 63.48919017786301,-14.216763232777112 A 251.67760090148286 251.67760090148286 0 0 0 24.018736134675446,-6.953439040707552 Z M 109.97799711650639,-14.666475626001642 L 109.89527102340855,-13.669903303728546 A 250.67760090148286 250.67760090148286 0 0 1 149.3414915591254,-7.1973270564787475 L 148.62123814754412,-4.285071054149022 L 156.25679779982497,-6.002111763177373 L 150.30182944123376,-11.08033505958505 L 149.5815760296525,-8.168079057255323 A 251.67760090148286 251.67760090148286 0 0 0 109.97799711650639,-14.666475626001642"/><text text-anchor="middle" pointer-events="none" font-size="8px" fill="#000000" x="86.72802385734556" y="-12.017393831922107" font-family="sans-serif">twowheeler</text></g><g class="relationship" transform="translate(213.0220964956358 184.23197451785666) rotate(350.30584445443776)"><path class="outline" fill="#A5ABB6" stroke="none" d="M 24.018736134675446,6.953439040707552 L 24.277555179777966,5.987513214418485 A 315.9234502869727 315.9234502869727 0 0 0 80.28429573381618,15.700351636570929 L 80.2027561546829,16.697021740985974 A 316.9234502869727 316.9234502869727 0 0 1 24.018736134675446,6.953439040707552 Z M 126.69765382147062,17.078673048530447 L 126.63248637206217,16.08079870597146 A 315.9234502869727 315.9234502869727 0 0 0 182.79112417140888,7.288664822553169 L 182.06234101340192,4.378531645427863 L 189.70289877770242,6.073192983391191 L 183.76283504875147,11.168842392053579 L 183.0340518907445,8.258709214928272 A 316.9234502869727 316.9234502869727 0 0 1 126.69765382147062,17.078673048530447"/><text text-anchor="middle" pointer-events="none" font-size="8px" fill="#000000" x="103.44730053458346" y="20.241684170053645" font-family="sans-serif">twowheeler</text></g><g class="relationship" transform="translate(-220.68993745952542 136.78011123854276) rotate(370.15279959480506)"><path class="outline" fill="#A5ABB6" stroke="none" d="M 24.018736134675446,6.953439040707552 L 24.277555179777966,5.987513214418485 A 400.12581314078056 400.12581314078056 0 0 0 115.4378246170752,19.429286702924117 L 115.40683458585643,20.428806396559537 A 401.12581314078056 401.12581314078056 0 0 1 24.018736134675446,6.953439040707552 Z M 134.76456934571914,20.56165727542259 L 134.74730086520492,19.56180638674931 A 400.12581314078056 400.12581314078056 0 0 0 226.08347478232977,7.3724941593247895 L 225.3468634303647,4.464332589508528 L 232.9919536705619,6.138427933042321 L 227.06562325161656,11.250042919079805 L 226.32901189965148,8.341881349263543 A 401.12581314078056 401.12581314078056 0 0 1 134.76456934571914,20.56165727542259"/><text text-anchor="middle" pointer-events="none" font-size="8px" fill="#000000" x="125.08833181879449" y="23.112035297157547" font-family="sans-serif">trek</text></g><g class="relationship" transform="translate(32.50882444980605 182.12245246250387) rotate(360.66954195365224)"><path class="outline" fill="#A5ABB6" stroke="none" d="M 24.018736134675446,6.953439040707552 L 24.277555179777966,5.987513214418485 A 250.67760090148286 250.67760090148286 0 0 0 77.0887665511427,14.238446286999107 L 77.04062134040531,15.237286633943029 A 251.67760090148286 251.67760090148286 0 0 1 24.018736134675446,6.953439040707552 Z M 96.40935959638122,15.424651339738375 L 96.38054627689345,14.425066529619642 A 250.67760090148286 250.67760090148286 0 0 0 149.3414915591254,7.1973270564787475 L 148.62123814754412,4.285071054149022 L 156.25679779982497,6.002111763177373 L 150.30182944123376,11.08033505958505 L 149.5815760296525,8.168079057255323 A 251.67760090148286 251.67760090148286 0 0 1 96.40935959638122,15.424651339738375"/><text text-anchor="middle" pointer-events="none" font-size="8px" fill="#000000" x="86.72802385734559" y="18.017393831922107" font-family="sans-serif">trek</text></g><g class="relationship" transform="translate(213.0220964956358 184.23197451785666) rotate(350.30584445443776)"><path class="outline" fill="#A5ABB6" stroke="none" d="M 24.018736134675446,-6.953439040707552 L 24.277555179777966,-5.987513214418485 A 315.9234502869727 315.9234502869727 0 0 1 93.80175005457143,-16.515035091990228 L 93.76299759462313,-17.514283933294507 A 316.9234502869727 316.9234502869727 0 0 0 24.018736134675446,-6.953439040707552 Z M 113.12582358547255,-17.673222832571696 L 113.1034798217955,-16.673472485622653 A 315.9234502869727 315.9234502869727 0 0 1 182.79112417140888,-7.288664822553169 L 182.06234101340192,-4.378531645427863 L 189.70289877770242,-6.073192983391191 L 183.76283504875147,-11.168842392053579 L 183.0340518907445,-8.258709214928272 A 316.9234502869727 316.9234502869727 0 0 0 113.12582358547255,-17.673222832571696"/><text text-anchor="middle" pointer-events="none" font-size="8px" fill="#000000" x="103.44730053458335" y="-14.241684170053645" font-family="sans-serif">trek</text></g><g class="relationship" transform="translate(-220.68993745952542 136.78011123854276) rotate(306.2354793768388)"><path class="outline" fill="#A5ABB6" stroke="none" d="M 25 0.5 L 61.77760996067457 0.5 L 61.77760996067457 -0.5 L 25 -0.5 Z M 81.11354746067457 0.5 L 117.89115742134913 0.5 L 117.89115742134913 3.5 L 124.89115742134913 0 L 117.89115742134913 -3.5 L 117.89115742134913 -0.5 L 81.11354746067457 -0.5 Z"/><text text-anchor="middle" pointer-events="none" font-size="8px" fill="#000000" x="71.44557871067457" y="3" font-family="sans-serif">trek</text></g><g class="relationship" transform="translate(32.50882444980605 182.12245246250387) rotate(408.1718785052673)"><path class="outline" fill="#A5ABB6" stroke="none" d="M 24.018736134675446,-6.953439040707552 L 24.277555179777966,-5.987513214418485 A 84.35346944987315 84.35346944987315 0 0 1 24.432635195354877,-6.0289086813516235 L 24.17565460475326,-6.995325245807152 A 85.35346944987315 85.35346944987315 0 0 0 24.018736134675446,-6.953439040707552 Z M 65.13297764590688,-7.714898598720993 L 64.91010283865373,-6.740051523384622 A 84.35346944987315 84.35346944987315 0 0 1 65.06654124156042,-6.704129079008599 L 64.39235314575436,-3.780865421472147 L 71.99985445844649,-5.618234131717193 L 65.96545870263517,-10.601813955723868 L 65.29127060682912,-7.678550298187416 A 85.35346944987315 85.35346944987315 0 0 0 65.13297764590688,-7.714898598720993"/><text text-anchor="middle" pointer-events="none" font-size="8px" fill="#000000" x="44.61929114258932" y="-6.348695379481924" font-family="sans-serif">twowhe…</text></g><g class="relationship" transform="translate(96.77139933065195 253.92527451754012) rotate(329.0569476251815)"><path class="outline" fill="#A5ABB6" stroke="none" d="M 21.40063509461097,12.933012701892217 L 21.90063509461097,12.06698729810778 A 88.79603884487724 88.79603884487724 0 0 0 41.34279008041803,20.384386873153986 L 41.06174303416151,21.344080864898473 A 89.79603884487724 89.79603884487724 0 0 1 21.40063509461097,12.933012701892217 Z M 87.24729903708317,22.4856468438213 L 87.01400762702194,21.513239975277244 A 88.79603884487724 88.79603884487724 0 0 0 106.84333204867715,14.166511508546687 L 105.47351832525902,11.497502261066389 L 113.29932258003421,11.415114361817757 L 108.66975034656801,17.725190505187086 L 107.29993662314988,15.056181257706786 A 89.79603884487724 89.79603884487724 0 0 1 87.24729903708317,22.4856468438213"/><text text-anchor="middle" pointer-events="none" font-size="8px" fill="#000000" x="64.09220287024115" y="27.436136536231444" font-family="sans-serif">twowheeler</text></g><g class="relationship" transform="translate(32.50882444980605 182.12245246250387) rotate(408.1718785052673)"><path class="outline" fill="#A5ABB6" stroke="none" d="M 24.018736134675446,6.953439040707552 L 24.277555179777966,5.987513214418485 A 84.35346944987315 84.35346944987315 0 0 0 35.04894233869558,8.13346044972593 L 34.917816762861904,9.124826216414647 A 85.35346944987315 85.35346944987315 0 0 1 24.018736134675446,6.953439040707552 Z M 54.322642187612175,9.465746820028428 L 54.22642111251509,8.470386832532867 A 84.35346944987315 84.35346944987315 0 0 0 65.06654124156042,6.704129079008599 L 64.39235314575436,3.780865421472147 L 71.99985445844649,5.618234131717193 L 65.96545870263517,10.601813955723868 L 65.29127060682912,7.678550298187416 A 85.35346944987315 85.35346944987315 0 0 1 54.322642187612175,9.465746820028428"/><text text-anchor="middle" pointer-events="none" font-size="8px" fill="#000000" x="44.619291142589326" y="12.348695379481924" font-family="sans-serif">trek</text></g><g class="relationship" transform="translate(96.77139933065195 253.92527451754012) rotate(329.0569476251815)"><path class="outline" fill="#A5ABB6" stroke="none" d="M 25 0.5 L 53.26467377951832 0.5 L 53.26467377951832 -0.5 L 25 -0.5 Z M 75.27639252951832 0.5 L 103.54106630903664 0.5 L 103.54106630903664 3.5 L 110.54106630903664 0 L 103.54106630903664 -3.5 L 103.54106630903664 -0.5 L 75.27639252951832 -0.5 Z"/><text text-anchor="middle" pointer-events="none" font-size="8px" fill="#000000" x="64.27053315451832" y="3" font-family="sans-serif">road</text></g><g class="relationship" transform="translate(96.77139933065195 253.92527451754012) rotate(329.0569476251815)"><path class="outline" fill="#A5ABB6" stroke="none" d="M 21.40063509461097,-12.933012701892217 L 21.90063509461097,-12.06698729810778 A 88.79603884487724 88.79603884487724 0 0 1 54.52527137367459,-23.179429052356014 L 54.39268231568809,-24.170600148434914 A 89.79603884487724 89.79603884487724 0 0 0 21.40063509461097,-12.933012701892217 Z M 73.79299773648216,-24.65011673286986 L 73.70953811715108,-23.653605572901697 A 88.79603884487724 88.79603884487724 0 0 1 106.84333204867715,-14.166511508546687 L 105.47351832525902,-11.497502261066389 L 113.29932258003421,-11.415114361817757 L 108.66975034656801,-17.725190505187086 L 107.29993662314988,-15.056181257706786 A 89.79603884487724 89.79603884487724 0 0 0 73.79299773648216,-24.65011673286986"/><text text-anchor="middle" pointer-events="none" font-size="8px" fill="#000000" x="64.09220287024115" y="-21.436136536231444" font-family="sans-serif">trek</text></g><g class="relationship" transform="translate(96.77139933065195 253.92527451754012) rotate(360.2305164063313)"><path class="outline" fill="#A5ABB6" stroke="none" d="M 25 0.5 L 112.74133569081503 0.5 L 112.74133569081503 -0.5 L 25 -0.5 Z M 132.07727319081505 0.5 L 219.81860888163007 0.5 L 219.81860888163007 3.5 L 226.81860888163007 0 L 219.81860888163007 -3.5 L 219.81860888163007 -0.5 L 132.07727319081505 -0.5 Z"/><text text-anchor="middle" pointer-events="none" font-size="8px" fill="#000000" x="122.40930444081503" y="3" font-family="sans-serif">trek</text></g><g class="relationship" transform="translate(348.58797015843106 254.93840610695827) rotate(305.2145246344434)"><path class="outline" fill="#A5ABB6" stroke="none" d="M 25 0.5 L 52.152754118597926 0.5 L 52.152754118597926 -0.5 L 25 -0.5 Z M 71.48869161859793 0.5 L 98.64144573719585 0.5 L 98.64144573719585 3.5 L 105.64144573719585 0 L 98.64144573719585 -3.5 L 98.64144573719585 -0.5 L 71.48869161859793 -0.5 Z"/><text text-anchor="middle" pointer-events="none" font-size="8px" fill="#000000" x="61.820722868597926" y="3" font-family="sans-serif">trek</text></g></g><g class="layer nodes"><g class="node" transform="translate(-276.4050828654978,13.101665757968775)"><circle class="outline" cx="0" cy="0" r="25" fill="#F16667" stroke="#eb2728" stroke-width="2px"/><text text-anchor="middle" pointer-events="none" font-family="sans-serif" dy="1.5625" font-size="25" fill="#FFFFFF"/><text text-anchor="middle" pointer-events="none" x="0" y="5" font-size="10px" fill="#FFFFFF" font-family="sans-serif"> Darjeeling</text></g><g class="node" transform="translate(423.920981063238,148.2045089031134)"><circle class="outline" cx="0" cy="0" r="25" fill="#8DCC93" stroke="#5db665" stroke-width="2px"/><text text-anchor="middle" pointer-events="none" font-family="sans-serif" dy="1.5625" font-size="25" fill="#2A2C34"/><text text-anchor="middle" pointer-events="none" x="0" y="5" font-size="10px" fill="#2A2C34" font-family="sans-serif"> Sandak…</text></g><g class="node" transform="translate(-132.0884873857581,15.87873772303061)"><circle class="outline" cx="0" cy="0" r="25" fill="#D9C8AE" stroke="#c0a378" stroke-width="2px"/><text text-anchor="middle" pointer-events="none" font-family="sans-serif" dy="1.5625" font-size="25" fill="#2A2C34"/><text text-anchor="middle" pointer-events="none" x="0" y="5" font-size="10px" fill="#2A2C34" font-family="sans-serif"> Tumbling</text></g><g class="node" transform="translate(50.943563574953586,17.500890592406776)"><circle class="outline" cx="0" cy="0" r="25" fill="#D9C8AE" stroke="#c0a378" stroke-width="2px"/><text text-anchor="middle" pointer-events="none" font-family="sans-serif" dy="1.5625" font-size="25" fill="#2A2C34"/><text text-anchor="middle" pointer-events="none" x="0" y="5" font-size="10px" fill="#2A2C34" font-family="sans-serif"> Gairibus</text></g><g class="node" transform="translate(183.65870573998157,97.69887752696744)"><circle class="outline" cx="0" cy="0" r="25" fill="#D9C8AE" stroke="#c0a378" stroke-width="2px"/><text text-anchor="middle" pointer-events="none" font-family="sans-serif" dy="1.5625" font-size="25" fill="#2A2C34"/><text text-anchor="middle" pointer-events="none" x="0" y="5" font-size="10px" fill="#2A2C34" font-family="sans-serif"> BhikeBh…</text></g><g class="node" transform="translate(-220.68993745952542,136.78011123854276)"><circle class="outline" cx="0" cy="0" r="25" fill="#F16667" stroke="#eb2728" stroke-width="2px"/><text text-anchor="middle" pointer-events="none" font-family="sans-serif" dy="1.5625" font-size="25" fill="#FFFFFF"/><text text-anchor="middle" pointer-events="none" x="0" y="5" font-size="10px" fill="#FFFFFF" font-family="sans-serif"> Rimbik</text></g><g class="node" transform="translate(32.50882444980605,182.12245246250387)"><circle class="outline" cx="0" cy="0" r="25" fill="#D9C8AE" stroke="#c0a378" stroke-width="2px"/><text text-anchor="middle" pointer-events="none" font-family="sans-serif" dy="1.5625" font-size="25" fill="#2A2C34"/><text text-anchor="middle" pointer-events="none" x="0" y="5" font-size="10px" fill="#2A2C34" font-family="sans-serif"> Sirikhola</text></g><g class="node" transform="translate(213.0220964956358,184.23197451785666)"><circle class="outline" cx="0" cy="0" r="25" fill="#D9C8AE" stroke="#c0a378" stroke-width="2px"/><text text-anchor="middle" pointer-events="none" font-family="sans-serif" dy="1.5625" font-size="25" fill="#2A2C34"/><text text-anchor="middle" pointer-events="none" x="0" y="5" font-size="10px" fill="#2A2C34" font-family="sans-serif"> Gurdum</text></g><g class="node" transform="translate(96.77139933065195,253.92527451754012)"><circle class="outline" cx="0" cy="0" r="25" fill="#D9C8AE" stroke="#c0a378" stroke-width="2px"/><text text-anchor="middle" pointer-events="none" font-family="sans-serif" dy="1.5625" font-size="25" fill="#2A2C34"/><text text-anchor="middle" pointer-events="none" x="0" y="5" font-size="10px" fill="#2A2C34" font-family="sans-serif"> Rammam</text></g><g class="node" transform="translate(348.58797015843106,254.93840610695827)"><circle class="outline" cx="0" cy="0" r="25" fill="#8DCC93" stroke="#5db665" stroke-width="2px"/><text text-anchor="middle" pointer-events="none" font-family="sans-serif" dy="1.5625" font-size="25" fill="#2A2C34"/><text text-anchor="middle" pointer-events="none" x="0" y="5" font-size="10px" fill="#2A2C34" font-family="sans-serif"> Sabargr…</text></g></g></svg>